<svg width="1200" height="630" viewBox="0 0 1200 630" fill="none" xmlns="http://www.w3.org/2000/svg">
  <rect width="1200" height="630" fill="#0f172a"/>

  <rect x="90" y="70" width="1020" height="490" rx="32" fill="#111827"/>
  <rect x="90" y="70" width="1020" height="490" rx="32" stroke="#334155" stroke-width="2"/>

  <text x="140" y="135" fill="#60a5fa" font-family="Arial, sans-serif" font-size="24" font-weight="700" letter-spacing="5">
    FRONTEND-ПОРТФОЛИО
  </text>

  <text x="140" y="220" fill="#f9fafb" font-family="Arial, sans-serif" font-size="64" font-weight="700">
    Dmitriy Web
  </text>

  <text x="140" y="292" fill="#f9fafb" font-family="Arial, sans-serif" font-size="46" font-weight="700">
    Учебный сайт-портфолио
  </text>

  <text x="140" y="355" fill="#cbd5e1" font-family="Arial, sans-serif" font-size="26">
    HTML • CSS • JavaScript • GitHub Pages
  </text>

  <rect x="140" y="410" width="160" height="52" rx="14" fill="#60a5fa"/>
  <text x="175" y="444" fill="#ffffff" font-family="Arial, sans-serif" font-size="18" font-weight="700">
    v1.1
  </text>

  <rect x="320" y="410" width="220" height="52" rx="14" fill="#172554"/>
  <text x="350" y="444" fill="#60a5fa" font-family="Arial, sans-serif" font-size="18" font-weight="700">
    GitHub Pages
  </text>

  <rect x="720" y="135" width="310" height="300" rx="24" fill="#0f172a"/>
  <rect x="750" y="170" width="250" height="42" rx="12" fill="#1e3a8a"/>
  <rect x="750" y="230" width="250" height="42" rx="12" fill="#1e3a8a"/>
  <rect x="750" y="290" width="250" height="42" rx="12" fill="#1e3a8a"/>
  <rect x="750" y="350" width="250" height="42" rx="12" fill="#1e3a8a"/>

  <text x="775" y="198" fill="#60a5fa" font-family="Arial, sans-serif" font-size="20" font-weight="700">
    01
  </text>
  <text x="825" y="198" fill="#f9fafb" font-family="Arial, sans-serif" font-size="18" font-weight="700">
    HTML
  </text>

  <text x="775" y="258" fill="#60a5fa" font-family="Arial, sans-serif" font-size="20" font-weight="700">
    02
  </text>
  <text x="825" y="258" fill="#f9fafb" font-family="Arial, sans-serif" font-size="18" font-weight="700">
    CSS
  </text>

  <text x="775" y="318" fill="#60a5fa" font-family="Arial, sans-serif" font-size="20" font-weight="700">
    03
  </text>
  <text x="825" y="318" fill="#f9fafb" font-family="Arial, sans-serif" font-size="18" font-weight="700">
    JavaScript
  </text>

  <text x="775" y="378" fill="#60a5fa" font-family="Arial, sans-serif" font-size="20" font-weight="700">
    04
  </text>
  <text x="825" y="378" fill="#f9fafb" font-family="Arial, sans-serif" font-size="18" font-weight="700">
    GitHub
  </text>

  <circle cx="1015" cy="120" r="54" fill="#172554"/>
  <circle cx="1015" cy="120" r="26" fill="#60a5fa"/>
</svg>